<svg width="277" height="180" viewBox="0 0 277 180" fill="none" xmlns="http://www.w3.org/2000/svg">
<path d="M170.706 145.763C128.43 168.078 79.0229 174.247 1 179.5C57.9902 165.839 77 169.415 151 128.5C242.933 77.6698 268.513 19.8644 275.218 2C280.557 10.5242 255.277 101.12 170.706 145.763Z" fill="#EAC234"/>
<path d="M170.706 145.763C128.43 168.078 79.0229 174.247 1 179.5C57.9902 165.839 77 169.415 151 128.5C242.933 77.6698 268.513 19.8644 275.218 2C280.557 10.5242 255.277 101.12 170.706 145.763Z" fill="url(#paint0_linear)"/>
<path d="M170.706 145.763C128.43 168.078 79.0229 174.247 1 179.5C57.9902 165.839 77 169.415 151 128.5C242.933 77.6698 268.513 19.8644 275.218 2C280.557 10.5242 255.277 101.12 170.706 145.763Z" stroke="black"/>
<defs>
<linearGradient id="paint0_linear" x1="137.589" y1="-6.94915" x2="137.589" y2="158.559" gradientUnits="userSpaceOnUse">
<stop stop-color="white"/>
<stop offset="1" stop-color="white" stop-opacity="0"/>
</linearGradient>
</defs>
</svg>
